# xmcd
# Track frame offsets:
# 150
# 18545
# 40065
# 65377
# 85192
# 102602
# 131620
# 154572
# 169625
# 196397
# 209837
# 240640
#
# Disc length: 3716 seconds
# Revision: 0
# Processed by: cddbd v1.5.2PL0 Copyright (c) Steve Scherf et al.
# Submitted via: VisiTrax 2.10.0.248 - For more info visit www.synapsa.com
#
DISCID=a20e820c
DTITLE=The Hipshooters - Live At The Bombshelter
DYEAR=1900
DGENRE=
TTITLE0=Wah Some Time
TTITLE1=Willow Tree
TTITLE2=T-Bone Shuffle
TTITLE3=Mary Had A Little Lamb
TTITLE4=Round And Round
TTITLE5=Bombshelter Blues
TTITLE6=Call Me A Doctor
TTITLE7=Single Shoes
TTITLE8=Toredown
TTITLE9=Hiplicity
TTITLE10=Too Much Information
TTITLE11=Still Cryin'
EXTD=
EXTT0=
EXTT1=
EXTT2=
EXTT3=
EXTT4=
EXTT5=
EXTT6=
EXTT7=
EXTT8=
EXTT9=
EXTT10=
EXTT11=
PLAYORDER=
